<?xml version="1.0" encoding="UTF-8" standalone="no"?>
<!-- Created with Inkscape (http://www.inkscape.org/) -->

<svg
   width="210mm"
   height="150mm"
   viewBox="0 0 210 150"
   version="1.1"
   id="svg1"
   xml:space="preserve"
   inkscape:version="1.3.2 (091e20e, 2023-11-25, custom)"
   sodipodi:docname="SRCL-shield-logo-blackredgrey-whitebackground.svg"
   xmlns:inkscape="http://www.inkscape.org/namespaces/inkscape"
   xmlns:sodipodi="http://sodipodi.sourceforge.net/DTD/sodipodi-0.dtd"
   xmlns="http://www.w3.org/2000/svg"
   xmlns:svg="http://www.w3.org/2000/svg"><sodipodi:namedview
     id="namedview1"
     pagecolor="#ffffff"
     bordercolor="#000000"
     borderopacity="0.25"
     inkscape:showpageshadow="2"
     inkscape:pageopacity="0.0"
     inkscape:pagecheckerboard="false"
     inkscape:deskcolor="#d1d1d1"
     inkscape:document-units="mm"
     inkscape:zoom="1.0076756"
     inkscape:cx="394.47219"
     inkscape:cy="292.25675"
     inkscape:window-width="1920"
     inkscape:window-height="986"
     inkscape:window-x="2869"
     inkscape:window-y="-11"
     inkscape:window-maximized="1"
     inkscape:current-layer="layer4" /><defs
     id="defs1"><clipPath
       id="clip1"><path
         d="M 775,455 H 918.71875 V 584 H 775 Z m 0,0"
         id="path1" /></clipPath><clipPath
       id="clip2"><path
         d="m 706,653 h 75 v 98.48047 h -75 z m 0,0"
         id="path2" /></clipPath></defs><g
     inkscape:groupmode="layer"
     id="layer4"
     inkscape:label="Layer 1"><rect
       style="fill:#ffffff;stroke-width:0.472245"
       id="rect1"
       width="217.14371"
       height="155.44023"
       x="-3.9385176"
       y="-2.8882475" /><g
       id="g1"
       transform="matrix(4.6114821,0,0,4.6114821,-92.344716,-100.73185)"><path
         style="fill:#ffffff;fill-opacity:1;fill-rule:nonzero;stroke:none;stroke-width:0.0420589"
         d="m 33.369298,35.077862 -2.313567,2.49511 1.000048,-4.36443 -1.332084,0.705143 -0.998734,-2.716741 -0.998734,2.716741 -1.332083,-0.705143 1.000212,4.36443 -2.363018,-2.548176 -0.15345,1.112588 -1.937501,-0.565002 0.894244,2.113459 -0.82097,0.22393 2.768986,2.067457 c 3.150145,-1.214942 5.126419,-0.862042 6.284353,-0.392658 -0.170536,0.665384 -0.422561,1.28411 -0.755417,1.85519 -0.09315,-0.05109 -0.190908,-0.100547 -0.294741,-0.147699 -0.402353,-0.182364 -0.885865,-0.330392 -1.467625,-0.416646 -0.223767,-0.03319 -0.462484,-0.05684 -0.716151,-0.07032 -0.07065,-0.0038 -0.142606,-0.0066 -0.215716,-0.0087 -0.139156,-0.0039 -0.282912,-0.0046 -0.431104,-0.0021 -0.654048,0.01134 -1.395665,0.08724 -2.238485,0.248903 -0.03171,0.0061 -0.06276,0.01117 -0.09414,0.01692 -0.15312,0.02777 -0.302298,0.05109 -0.447697,0.07015 -2.115758,0.276668 -3.421555,-0.349779 -4.204738,-1.064287 -0.08132,-0.234281 -0.151149,-0.471684 -0.208815,-0.712208 0.784989,0.819162 2.168332,1.536792 4.461363,0.744245 l -3.097736,-2.313075 1.077431,-0.293919 -1.003992,-2.373369 2.204148,0.642876 0.19173,-1.389586 2.03772,2.197577 -0.898188,-3.919198 1.601688,0.847914 0.976555,-2.655788 c 0.128312,0.01692 0.25646,0.03532 0.384115,0.05537 l 0.956183,2.600423 1.601687,-0.847914 -0.898187,3.919198 1.784053,-1.923865 -0.0016,0.433239"
         id="path21" /><path
         style="fill:#ffffff;fill-opacity:1;fill-rule:nonzero;stroke:none;stroke-width:0.0420589"
         d="m 26.445848,41.622289 c -2.182134,0.174315 -3.412356,-0.434225 -4.106163,-1.187834 0.112376,0.276504 0.241182,0.548572 0.387073,0.815547 0.0076,0.01396 0.01561,0.0276 0.02333,0.04157 0.649776,0.477106 1.7415,0.929732 3.575826,1.078252 1.925508,0.15575 3.192368,0.674256 4.025331,1.268338 0.50372,-0.38888 0.945339,-0.815876 1.323869,-1.280496 -0.942875,-0.537565 -2.537005,-0.950596 -5.229266,-0.735373"
         id="path22" /><path
         style="fill:#211e1e;fill-opacity:1;fill-rule:nonzero;stroke:none;stroke-width:0.0420589"
         d="m 22.750088,41.291568 c 1.04145,1.883121 2.715097,2.950037 4.649149,3.791379 0.11484,0.04995 0.239867,0.05257 0.35405,0 0.567302,-0.262868 1.197364,-0.524751 1.728686,-0.848571 0.30772,-0.187622 0.597367,-0.386416 0.869272,-0.596218 -0.832963,-0.594082 -2.099823,-1.112588 -4.025331,-1.268338 -1.834326,-0.14852 -2.92605,-0.601146 -3.575826,-1.078252"
         id="path23" /><path
         style="fill:#211e1e;fill-opacity:1;fill-rule:nonzero;stroke:none;stroke-width:0.0420589"
         d="m 26.947761,41.043158 c -2.437936,0.467577 -3.898497,-0.202737 -4.746246,-0.976555 0.04288,0.123548 0.08872,0.246111 0.13817,0.367852 0.693807,0.753609 1.924029,1.362149 4.106163,1.187834 2.692261,-0.215223 4.286391,0.197808 5.229266,0.735373 0.237402,-0.29129 0.449832,-0.597531 0.636961,-0.918559 -1.032085,-0.566645 -2.695875,-0.90788 -5.364314,-0.395945"
         id="path24" /><path
         style="fill:#211e1e;fill-opacity:1;fill-rule:nonzero;stroke:none;stroke-width:0.0420589"
         d="m 32.485075,32.64929 -0.898187,3.919198 1.784053,-1.923865 c 0.0023,-0.874201 8.2e-4,-1.748566 0.0092,-2.622273 0.002,-0.159035 -0.03565,-0.247917 -0.20323,-0.305091 -1.063301,-0.36473 -2.145003,-0.648134 -3.249706,-0.820477 l 0.956183,2.600422 1.601687,-0.847914"
         id="path25" /><path
         style="fill:#211e1e;fill-opacity:1;fill-rule:nonzero;stroke:none;stroke-width:0.0420589"
         d="m 26.453734,40.097984 -3.097736,-2.313075 1.077431,-0.293919 -1.003992,-2.373369 2.204148,0.642876 0.19173,-1.389586 2.03772,2.197577 -0.898188,-3.919198 1.601688,0.847914 0.976555,-2.655789 c -0.268126,-0.03532 -0.53773,-0.06424 -0.808648,-0.08576 -2.294016,-0.181708 -4.516565,0.178421 -6.683254,0.931867 -0.209638,0.07327 -0.281598,0.166757 -0.279133,0.389373 0.01249,0.983126 0.01183,2.950693 0.01183,2.950693 0,0.886358 -0.0092,1.772716 0.0018,2.659239 0.0074,0.571245 0.07738,1.12721 0.206844,1.667569 0.784825,0.819326 2.168497,1.536135 4.461199,0.743588"
         id="path26" /><path
         style="fill:#e61e26;fill-opacity:1;fill-rule:nonzero;stroke:none;stroke-width:0.0420589"
         d="m 33.067493,39.584898 c 0.146548,-0.573381 0.232802,-1.181427 0.255474,-1.824797 0.03187,-0.893587 0.04222,-1.787831 0.04633,-2.682239 l -2.313567,2.49511 1.000048,-4.36443 -1.332084,0.705143 -0.998734,-2.716741 -0.998734,2.716741 -1.332083,-0.705143 1.000212,4.36443 -2.363018,-2.548176 -0.15345,1.112588 -1.937501,-0.565002 0.894244,2.113459 -0.82097,0.22393 2.768986,2.067457 c 3.150638,-1.215107 5.126912,-0.861878 6.284846,-0.39233"
         id="path27" /></g></g><g
     inkscape:groupmode="layer"
     id="layer2"
     inkscape:label="Layer 2"
     style="display:inline"><text
       xml:space="preserve"
       style="font-size:3.175px;line-height:0;white-space:pre;inline-size:217.65;display:inline;fill:#000000;stroke-width:0.264583"
       x="24.91478"
       y="39.151798"
       id="text1"
       transform="translate(46.795449,25.64414)"><tspan
         x="24.91478"
         y="39.151798"
         id="tspan4"><tspan
           style="font-weight:bold;font-size:16.9333px;line-height:1.3;font-family:Calibri;-inkscape-font-specification:'Calibri, Bold'"
           id="tspan2">Spacecraft
</tspan></tspan><tspan
         x="24.91478"
         y="61.165087"
         id="tspan8"><tspan
           style="font-weight:bold;font-size:16.9333px;line-height:1.3;font-family:Calibri;-inkscape-font-specification:'Calibri, Bold'"
           id="tspan5">Robotics </tspan><tspan
           style="font-weight:bold;font-size:16.9333px;font-family:Calibri;-inkscape-font-specification:'Calibri, Bold';fill:#e91c24"
           id="tspan6">+</tspan><tspan
           style="font-weight:bold;font-size:16.9333px;line-height:1.3;font-family:Calibri;-inkscape-font-specification:'Calibri, Bold'"
           id="tspan7"> Control
</tspan></tspan><tspan
         x="24.91478"
         y="75.346743"
         id="tspan10"><tspan
           style="font-weight:300;font-size:9.87778px;line-height:1;font-family:Calibri;-inkscape-font-specification:'Calibri, Light';fill:#595959"
           id="tspan9">L A B O R A T O R Y</tspan></tspan></text></g></svg>
